<svg xmlns="http://www.w3.org/2000/svg" fill="none" viewBox="0 0 96 96" id="Google-Bard--Streamline-Svg-Logos" height="24" width="24">
  <desc>
    Google Bard Streamline Icon: https://streamlinehq.com
  </desc>
  <path fill="#5f6368" d="M43.5049 57.6955v-19.565h7.0773c1.5484 0 2.8782.51 3.9895 1.5302 1.1113 1.0019 1.6668 2.268 1.6668 3.7982 0 1.931-.8835 3.2881-2.6505 4.0715v.1093c1.0019.3279 1.8034.9017 2.4046 1.7215.6012.8015.9017 1.7215.9017 2.7599 0 1.6031-.5829 2.9329-1.7488 3.9895-1.1294 1.0566-2.523 1.5849-4.1808 1.5849h-7.4598Zm2.5139-17.1604v5.9843h4.5634c.8926 0 1.6395-.3006 2.2407-.9018.6011-.6194.9017-1.3207.9017-2.104 0-.7651-.2915-1.4574-.8744-2.0768-.583-.6011-1.3025-.9017-2.1587-.9017h-4.6727Zm0 8.3343v6.4214h5.0552c.9109 0 1.6851-.3188 2.3227-.9564.6194-.6375.929-1.3936.929-2.268 0-.8561-.3187-1.6031-.9563-2.2407-.6376-.6375-1.4392-.9563-2.4047-.9563h-4.9459Zm15.1041 4.7273c0 .6558.2733 1.2023.8198 1.6395.5648.4372 1.2206.6558 1.9674.6558 1.0567 0 1.9948-.3916 2.8146-1.175.838-.7834 1.2569-1.7032 1.2569-2.7599-.7833-.6194-1.8764-.929-3.279-.929-1.0201 0-1.8764.2459-2.5686.7378-.6741.4918-1.0111 1.102-1.0111 1.8308Zm3.2518-9.7279c1.8581 0 3.3246.501 4.3994 1.5029 1.0747.9837 1.6122 2.3409 1.6122 4.0715v8.2523h-2.4047v-1.8582h-.1093c-1.0383 1.5303-2.4229 2.2954-4.1534 2.2954-1.4756 0-2.7143-.4372-3.7163-1.3116-.9837-.8745-1.4756-1.9675-1.4756-3.2791 0-1.3845.5192-2.4866 1.5576-3.3064 1.0566-.8197 2.4593-1.2296 4.2081-1.2296 1.4938 0 2.7235.2732 3.6889.8197v-.5738c0-.8744-.3461-1.6122-1.0383-2.2133-.6922-.6194-1.5029-.9291-2.432-.9291-1.4027 0-2.5139.5921-3.3337 1.7761l-2.2134-1.3936c1.2206-1.7488 3.0241-2.6232 5.4105-2.6232Zm11.3609 13.8267h-2.5139V44.306h2.4046v2.186h.1093c.2551-.7104.7743-1.3116 1.5575-1.8034.8017-.5101 1.5849-.7651 2.35-.7651.7287 0 1.3482.1093 1.8582.3279l-.7652 2.4319c-.3096-.1275-.8015-.1913-1.4755-.1913-.9472 0-1.7762.3826-2.4866 1.1477-.6922.7651-1.0384 1.6578-1.0384 2.6779v7.3779Zm12.5973-1.8582c1.2387 0 2.2497-.4462 3.0331-1.3389.8198-.8927 1.2296-2.0585 1.2296-3.4977 0-1.4026-.4098-2.5595-1.2296-3.4703-.8015-.9108-1.8126-1.3663-3.0331-1.3663-1.2024 0-2.2134.4555-3.0332 1.3663-.8197.9108-1.2296 2.0677-1.2296 3.4703 0 1.421.4099 2.5777 1.2296 3.4704.8198.9108 1.8308 1.3662 3.0332 1.3662Zm-.4099 2.2954c-1.7488 0-3.2517-.6922-4.5087-2.0768-1.2387-1.4026-1.8581-3.0877-1.8581-5.0552 0-1.9674.6194-3.6525 1.8581-5.0552 1.257-1.3845 2.7599-2.0767 4.5087-2.0767.9837 0 1.8764.2095 2.6779.6285.8197.419 1.4482.9746 1.8854 1.6668h.1093l-.1093-1.8581v-6.1755h2.514v19.565h-2.4047v-1.8582h-.1093c-.4372.6922-1.0657 1.2479-1.8854 1.6669-.8015.4189-1.6942.6285-2.6779.6285Z"></path>
  <path fill="url(#a)" d="m16.3637 53.5601-1.2926 2.9606c-.4969 1.138-2.0717 1.138-2.5686 0l-1.2926-2.9606c-1.1503-2.6347-3.22086-4.7319-5.80358-5.8783l-3.55793-1.5794c-1.131188-.5021-1.131186-2.1477 0-2.6498l3.44681-1.53c2.64914-1.1759 4.7568-3.3509 5.8875-6.0754l1.3094-3.1551c.4858-1.1708 2.1035-1.1708 2.5895 0l1.3093 3.1551c1.1307 2.7245 3.2383 4.8995 5.8875 6.0754l3.4468 1.53c1.1312.5021 1.1312 2.1477 0 2.6498l-3.5579 1.5794c-2.5827 1.1464-4.6533 3.2436-5.8036 5.8783Z"></path>
  <path fill="url(#b)" d="m28.3763 62.8954-.3636.8332c-.266.6099-1.1106.6099-1.3766 0l-.3636-.8332c-.648-1.4855-1.8151-2.6683-3.2715-3.3154l-1.1201-.4976c-.6055-.269-.6055-1.1494 0-1.4184l1.0574-.4698c1.4939-.6637 2.682-1.8903 3.3189-3.4263l.3733-.9003c.2601-.6275 1.1277-.6275 1.3879 0l.3733.9003c.6368 1.536 1.825 2.7626 3.3189 3.4263l1.0572.4698c.6058.269.6058 1.1494 0 1.4184l-1.1199.4976c-1.4564.6471-2.6236 1.8299-3.2716 3.3154Z"></path>
  <defs>
    <radialGradient id="a" cx="0" cy="0" r="1" gradientTransform="matrix(385.83144 1960.02543 -1958.04346 385.4413 -1003.66 2270.71)" gradientUnits="userSpaceOnUse">
      <stop stop-color="#1ba1e3"></stop>
      <stop offset="0" stop-color="#1ba1e3"></stop>
      <stop offset=".3" stop-color="#5489d6"></stop>
      <stop offset=".546" stop-color="#9b72cb"></stop>
      <stop offset=".825" stop-color="#d96570"></stop>
      <stop offset="1" stop-color="#f49c46"></stop>
    </radialGradient>
    <radialGradient id="b" cx="0" cy="0" r="1" gradientTransform="rotate(78.864 367.031 313.455) scale(1997.66 1995.59)" gradientUnits="userSpaceOnUse">
      <stop stop-color="#1ba1e3"></stop>
      <stop offset="0" stop-color="#1ba1e3"></stop>
      <stop offset=".3" stop-color="#5489d6"></stop>
      <stop offset=".546" stop-color="#9b72cb"></stop>
      <stop offset=".825" stop-color="#d96570"></stop>
      <stop offset="1" stop-color="#f49c46"></stop>
    </radialGradient>
  </defs>
</svg>