<svg width="55" height="50" viewBox="0 0 55 50" fill="none" xmlns="http://www.w3.org/2000/svg">
<path d="M26.9271 10.0186C22.6952 10.0031 19.6182 7.38788 18.9671 3.1352C18.8741 2.50662 18.9826 1.68402 19.3469 1.22616C19.5329 0.993347 20.556 1.22616 21.0908 1.49001C23.6796 2.72391 26.2683 3.91124 29.2214 2.93344C30.5002 2.50662 31.7171 1.90907 32.9727 1.41241C34.7864 0.690694 35.3444 1.13303 35.0654 3.06536C34.4531 7.30251 31.2598 10.0342 26.9349 10.0264L26.9271 10.0186Z" fill="white"/>
<path d="M26.8807 45.204C38.6696 45.204 48.2262 35.6355 48.2262 23.832C48.2262 12.0285 38.6696 2.45996 26.8807 2.45996C15.0918 2.45996 5.52734 12.0285 5.52734 23.832C5.52734 35.6355 15.084 45.204 26.8729 45.204H26.8807Z" fill="#FFD21E"/>
<path d="M48.2262 23.832C48.2262 12.0285 38.6695 2.46003 26.8806 2.46003C15.0917 2.46003 5.5273 12.0285 5.5273 23.832C5.5273 35.6355 15.084 45.204 26.8729 45.204C38.6618 45.204 48.2184 35.6355 48.2184 23.832H48.2262ZM3.07031 23.832C3.07031 10.6705 13.7276 0 26.8806 0C40.0337 0 50.6832 10.6705 50.6832 23.832C50.6832 36.9936 40.0259 47.6641 26.8806 47.6641C13.7354 47.6641 3.07031 36.9936 3.07031 23.832Z" fill="#FF9D0B"/>
<path d="M33.8099 18.0195C34.5927 18.2911 34.9027 19.9052 35.6933 19.4862C37.1892 18.6869 37.7627 16.8244 36.9644 15.3266C36.1661 13.8289 34.3059 13.2546 32.81 14.0539C31.3141 14.8533 30.7406 16.7157 31.5389 18.2135C31.9109 18.9197 33.1045 17.7711 33.8099 18.0195ZM19.347 18.0195C18.5641 18.2911 18.2464 19.9052 17.4635 19.4862C15.9676 18.6869 15.3941 16.8244 16.1924 15.3266C16.9907 13.8289 18.8509 13.2546 20.3468 14.0539C21.8427 14.8533 22.4163 16.7157 21.6179 18.2135C21.2459 18.9197 20.0445 17.7711 19.347 18.0195Z" fill="#3A3B45"/>
<path d="M26.7255 32.7801C32.7634 32.7801 34.7088 27.3944 34.7088 24.624C34.7088 23.1883 33.7477 23.6384 32.1976 24.3989C30.7637 25.1051 28.8415 26.0829 26.7333 26.0829C22.3153 26.0829 18.75 21.8535 18.75 24.6162C18.75 27.3789 20.6877 32.7723 26.7333 32.7723L26.7255 32.7801Z" fill="#FF323D"/>
<path fill-rule="evenodd" clip-rule="evenodd" d="M22.0982 31.3673C22.757 30.0325 23.9351 29.0315 25.3535 28.6046C25.6015 28.527 25.8496 28.9539 26.1131 29.3884C26.3611 29.8075 26.6169 30.2343 26.8727 30.2343C27.1517 30.2343 27.423 29.8152 27.6865 29.404C27.9655 28.9771 28.2368 28.5581 28.5003 28.6357C29.818 29.0547 30.9263 29.9782 31.5696 31.2044C33.8638 29.3962 34.7009 26.4473 34.7009 24.6236C34.7009 23.1879 33.7398 23.638 32.1897 24.3985L32.1044 24.4451C30.686 25.1513 28.7949 26.0903 26.7177 26.0903C24.6404 26.0903 22.757 25.159 21.3309 24.4451C19.7342 23.6535 18.7344 23.1569 18.7344 24.6236C18.7344 26.5016 19.6335 29.5824 22.0982 31.3673Z" fill="#3A3B45"/>
<path d="M41.3124 20.9141C42.4131 20.9141 43.3121 20.0217 43.3121 18.912C43.3121 17.8022 42.4208 16.9098 41.3124 16.9098C40.2041 16.9098 39.3128 17.8022 39.3128 18.912C39.3128 20.0217 40.2041 20.9141 41.3124 20.9141ZM12.7509 20.9141C13.8515 20.9141 14.7506 20.0217 14.7506 18.912C14.7506 17.8022 13.8593 16.9098 12.7509 16.9098C11.6426 16.9098 10.7512 17.8022 10.7512 18.912C10.7512 20.0217 11.6426 20.9141 12.7509 20.9141ZM8.63527 27.6812C7.64318 27.6812 6.75184 28.0847 6.13178 28.8297C5.60473 29.4816 5.31795 30.3042 5.31795 31.1423C4.93041 31.0259 4.52737 30.9638 4.12434 30.956C3.17099 30.956 2.31066 31.3208 1.7061 31.9804C0.589992 33.1367 0.388473 34.906 1.2178 36.2874C0.67525 36.7297 0.287713 37.3428 0.117196 38.0257C-0.0300681 38.5767 -0.177332 39.7485 0.605494 40.9436C0.0086857 41.8671 -0.0765726 43.0311 0.380722 44.0322C1.00853 45.4601 2.57418 46.5776 5.61248 47.7805C7.49591 48.5332 9.23208 49.0144 9.23983 49.0144C11.4255 49.6197 13.681 49.9534 15.952 49.9999C19.5483 49.9999 22.1293 48.8902 23.6097 46.7173C25.997 43.2174 25.6559 40.0124 22.5634 36.9237C20.8582 35.2165 19.7266 32.6943 19.4941 32.1434C19.0135 30.5059 17.7502 28.69 15.6575 28.69C14.5258 28.7055 13.4717 29.272 12.8284 30.2033C12.2161 29.4272 11.6116 28.8219 11.069 28.465C10.3482 27.976 9.50336 27.7044 8.62752 27.6812H8.63527ZM8.63527 30.1412C8.9453 30.1412 9.33284 30.2731 9.75138 30.5447C11.069 31.3828 13.588 35.7286 14.5181 37.4204C14.8281 37.9869 15.3629 38.2275 15.8357 38.2275C16.7891 38.2275 17.5254 37.2885 15.9287 36.0856C13.5182 34.2852 14.3631 31.3363 15.5102 31.1578C15.5567 31.1423 15.611 31.1423 15.6575 31.1423C16.7038 31.1423 17.1611 32.9427 17.1611 32.9427C17.1611 32.9427 18.5097 36.3417 20.835 38.6621C23.1524 40.9824 23.2764 42.8449 21.5868 45.3204C20.4319 47.0122 18.223 47.5244 15.9597 47.5244C13.6965 47.5244 11.2085 46.9734 9.86764 46.6242C9.79789 46.6087 1.60534 44.2883 2.64394 42.3172C2.81446 41.9835 3.10124 41.8516 3.46552 41.8516C4.93041 41.8516 7.58117 44.0322 8.72828 44.0322C8.97631 44.0322 9.15457 43.9313 9.23983 43.6597C9.72813 41.9059 1.83011 41.1686 2.49668 38.631C2.62069 38.1809 2.93072 38.0024 3.38026 38.0024C5.3102 38.0024 9.64287 41.4015 10.5575 41.4015C10.6272 41.4015 10.6815 41.3859 10.7047 41.3394C11.162 40.6021 10.9062 40.0822 7.69743 38.1421C4.49637 36.202 2.2409 35.0302 3.51978 33.6333C3.66704 33.4704 3.87631 33.4005 4.13209 33.4005C6.07753 33.4005 10.6815 37.5989 10.6815 37.5989C10.6815 37.5989 11.9216 38.8871 12.6812 38.8871C12.8517 38.8871 12.9989 38.825 13.0997 38.6543C13.6268 37.7541 8.14698 33.5945 7.8447 31.8795C7.63543 30.7077 7.99196 30.1257 8.65077 30.1257L8.63527 30.1412Z" fill="#FF9D0B"/>
<path d="M21.587 45.3204C23.2767 42.8371 23.1527 40.9746 20.8352 38.6543C18.51 36.334 17.1614 32.9349 17.1614 32.9349C17.1614 32.9349 16.6576 30.9638 15.5105 31.15C14.3633 31.3363 13.5185 34.2775 15.929 36.0779C18.3317 37.8783 15.4484 39.1044 14.5184 37.4126C13.596 35.7209 11.0693 31.3751 9.75164 30.537C8.44177 29.7066 7.51943 30.1645 7.82946 31.8873C8.13949 33.6023 13.6193 37.7619 13.0845 38.6543C12.5497 39.5623 10.674 37.5989 10.674 37.5989C10.674 37.5989 4.79116 32.2442 3.51229 33.6411C2.23341 35.038 4.48888 36.2098 7.68994 38.1499C10.9065 40.09 11.1545 40.6099 10.6972 41.3471C10.2399 42.0844 3.15575 36.1011 2.48919 38.6388C1.82262 41.1687 9.72064 41.8981 9.23234 43.652C8.74405 45.4058 3.6673 40.3461 2.63645 42.3094C1.5901 44.2806 9.7904 46.6009 9.86016 46.6242C12.5032 47.3149 19.2308 48.7738 21.5793 45.3204H21.587Z" fill="#FFD21E"/>
<path d="M45.42 27.6812C46.4121 27.6812 47.3034 28.0847 47.9235 28.8297C48.4505 29.4816 48.7373 30.3042 48.7373 31.1423C49.1249 31.0259 49.5279 30.9638 49.9387 30.956C50.892 30.956 51.7524 31.3208 52.3569 31.9804C53.473 33.1367 53.6745 34.906 52.8452 36.2874C53.3878 36.7297 53.7676 37.3428 53.9381 38.0257C54.0853 38.5767 54.2326 39.7485 53.4498 40.9436C54.0466 41.8671 54.1318 43.0311 53.6745 44.0322C53.0467 45.4601 51.4811 46.5776 48.4505 47.7805C46.5594 48.5332 44.8232 49.0144 44.8154 49.0144C42.6297 49.6197 40.3743 49.9534 38.1033 49.9999C34.5069 49.9999 31.9259 48.8902 30.4455 46.7173C28.0583 43.2174 28.3993 40.0124 31.4919 36.9237C33.1971 35.2165 34.3364 32.6943 34.5689 32.1434C35.0495 30.5059 36.3051 28.69 38.4056 28.69C39.5372 28.7055 40.5913 29.272 41.2346 30.2033C41.8469 29.4272 42.4515 28.8219 42.994 28.4649C43.7148 27.976 44.5597 27.7044 45.4277 27.6812H45.42ZM45.42 30.1412C45.11 30.1412 44.7224 30.2731 44.3039 30.5447C42.994 31.3828 40.4673 35.7286 39.5372 37.4204C39.2814 37.9093 38.7776 38.2197 38.2195 38.2275C37.274 38.2275 36.5299 37.2885 38.1343 36.0856C40.537 34.2852 39.6922 31.3363 38.5451 31.1578C38.4986 31.15 38.4443 31.1423 38.3978 31.1423C37.3515 31.1423 36.8942 32.9427 36.8942 32.9427C36.8942 32.9427 35.5455 36.3417 33.2281 38.6621C30.9028 40.9824 30.7866 42.8449 32.4762 45.3204C33.6233 47.0122 35.8401 47.5244 38.0955 47.5244C40.351 47.5244 42.8467 46.9734 44.1954 46.6242C44.2574 46.6086 52.4577 44.2883 51.4191 42.3172C51.2408 41.9835 50.9618 41.8516 50.5975 41.8516C49.1326 41.8516 46.4741 44.0322 45.3347 44.0322C45.079 44.0322 44.9007 43.9313 44.8232 43.6597C44.3349 41.9059 52.2252 41.1686 51.5586 38.631C51.4423 38.1809 51.1323 38.0024 50.675 38.0024C48.7451 38.0024 44.4124 41.4015 43.4978 41.4015C43.4358 41.4015 43.3815 41.3859 43.3583 41.3394C42.901 40.6021 43.149 40.0822 46.3578 38.1421C49.5744 36.202 51.8221 35.0302 50.5355 33.6333C50.396 33.4704 50.1867 33.4005 49.9309 33.4005C47.9777 33.4005 43.3738 37.5989 43.3738 37.5989C43.3738 37.5989 42.1337 38.8871 41.3819 38.8871C41.2113 38.8871 41.0486 38.8017 40.9633 38.6543C40.4285 37.7541 45.9083 33.5945 46.2183 31.8795C46.4276 30.7077 46.0711 30.1257 45.4122 30.1257L45.42 30.1412Z" fill="#FF9D0B"/>
<path d="M32.4764 45.3204C30.7868 42.8371 30.903 40.9746 33.2283 38.6543C35.5457 36.334 36.8944 32.9349 36.8944 32.9349C36.8944 32.9349 37.3982 30.9638 38.553 31.15C39.6924 31.3363 40.5372 34.2775 38.1345 36.0779C35.724 37.8783 38.615 39.1044 39.5374 37.4126C40.4675 35.7209 42.9942 31.3751 44.3041 30.537C45.614 29.7066 46.5363 30.1645 46.2263 31.8873C45.9162 33.6023 40.4365 37.7619 40.9713 38.6543C41.4983 39.5623 43.3817 37.5989 43.3817 37.5989C43.3817 37.5989 49.2646 32.2442 50.5434 33.6411C51.8223 35.038 49.5746 36.2098 46.3658 38.1499C43.1492 40.09 42.9089 40.6099 43.3585 41.3471C43.8158 42.0844 50.9 36.1011 51.5665 38.6388C52.2331 41.1687 44.3428 41.8981 44.8311 43.652C45.3194 45.4058 50.3884 40.3461 51.427 42.3094C52.4656 44.2806 44.2731 46.6009 44.2033 46.6242C41.5526 47.3149 34.8327 48.7738 32.4842 45.3204H32.4764Z" fill="#FFD21E"/>
</svg>
