<svg width="688" height="181" viewBox="0 0 688 181" fill="none" xmlns="http://www.w3.org/2000/svg">
<g clip-path="url(#clip0_44_2)">
<path d="M225.2 39.5H246L268 93.1H268.9L290.9 39.5H311.7V119.3H295.3V67.4H294.6L273.9 119H262.8L242.1 67.2H241.4V119.3H225V39.5H225.2Z" fill="url(#paint0_linear_44_2)"/>
<path d="M326.5 57.1H343.4V120H326.5V57.1Z" fill="url(#paint1_linear_44_2)"/>
<path d="M358.3 119.4V59.6H374.4V70H375C376.1 66.3 377.9 63.5 380.5 61.6C383.1 59.7 386 58.7 389.4 58.7C392.8 58.7 391.1 58.7 392.1 58.9C393.1 59 393.9 59.1 394.6 59.3V74C393.8 73.8 392.7 73.6 391.4 73.4C390 73.2 388.8 73.1 387.6 73.1C385.2 73.1 383 73.6 381.1 74.7C379.2 75.7 377.7 77.2 376.6 79.1C375.5 81 375 83.1 375 85.6V119.5H358.4L358.3 119.4Z" fill="url(#paint2_linear_44_2)"/>
<path d="M455.684 97.6216C456.713 96.8863 456.713 95.3424 455.684 94.6071L443.111 85.0491V106.738L455.684 97.6951V97.6216Z" fill="url(#paint3_linear_44_2)"/>
<path d="M427.01 73.359C426.348 72.8443 425.392 72.9178 424.731 73.359L398.336 94.5336C397.38 95.2688 397.38 96.7393 398.336 97.4745L424.731 118.649C425.392 119.164 426.348 119.237 427.01 118.649L441.273 107.988V83.6522L427.01 73.359ZM427.157 104.165C422.746 104.165 419.143 100.562 419.143 96.1511C419.143 91.7397 422.746 88.1371 427.157 88.1371C431.568 88.1371 435.171 91.7397 435.171 96.1511C435.171 100.562 431.568 104.165 427.157 104.165Z" fill="url(#paint4_linear_44_2)"/>
<path d="M492.2 120.6C488.4 120.6 485 119.9 482 118.6C479 117.2 476.6 115.3 474.9 112.6C473.2 110 472.3 106.7 472.3 102.7C472.3 98.7 472.9 96.6 474.1 94.3C475.3 92 477 90.2 479.1 88.8C481.2 87.4 483.6 86.4 486.3 85.7C489 85 491.8 84.5 494.8 84.2C498.3 83.8 501.1 83.5 503.2 83.2C505.3 82.9 506.9 82.4 507.8 81.7C508.8 81.1 509.2 80.1 509.2 78.8V78.6C509.2 76.1 508.4 74.2 506.9 72.9C505.4 71.5 503.2 70.9 500.4 70.9C497.6 70.9 495 71.6 493.3 72.9C491.5 74.2 490.4 75.8 489.8 77.8L474.4 76.6C475.2 73 476.7 69.8 479 67.2C481.3 64.5 484.2 62.5 487.8 61C491.4 59.5 495.6 58.8 500.4 58.8C505.2 58.8 506.9 59.2 509.9 60C513 60.8 515.7 62 518 63.6C520.4 65.2 522.3 67.3 523.7 69.9C525.1 72.4 525.8 75.5 525.8 79.1V119.5H510.1V111.2H509.6C508.6 113.1 507.4 114.7 505.7 116.1C504.1 117.5 502.2 118.6 499.9 119.4C497.6 120.2 495 120.6 492.1 120.6H492.2ZM496.9 109.1C499.3 109.1 501.5 108.6 503.4 107.7C505.3 106.7 506.7 105.4 507.8 103.7C508.9 102 509.4 100.2 509.4 98V91.6C508.9 91.9 508.2 92.2 507.3 92.5C506.4 92.8 505.4 93 504.3 93.2C503.2 93.4 502.1 93.6 500.9 93.8C499.8 94 498.8 94.1 497.9 94.2C496 94.5 494.3 94.9 492.8 95.6C491.3 96.2 490.2 97.1 489.4 98.1C488.6 99.1 488.2 100.4 488.2 102C488.2 104.3 489 106 490.7 107.2C492.4 108.4 494.5 109 497 109L496.9 109.1ZM538.8 119.4V59.6H555.4V119.5H538.8V119.4ZM547.1 51.9C544.6 51.9 542.5 51.1 540.7 49.4C539 47.7 538.1 45.7 538.1 43.4C538.1 41.1 539 39.2 540.7 37.5C542.5 35.8 544.6 35 547.1 35C549.6 35 551.7 35.8 553.4 37.5C555.2 39.1 556 41.1 556 43.4C556 45.7 555.1 47.7 553.4 49.4C551.7 51 549.6 51.9 547.1 51.9Z" fill="url(#paint5_linear_44_2)"/>
<path d="M228.1 153.6H225.3L231.6 136H234.7L241 153.6H238.2L233.2 139.2H233.1L228.1 153.6ZM228.5 146.7H237.7V148.9H228.5V146.7ZM246.2 135.9V153.5H243.5V135.9H246.2ZM258 153.6H255.2L261.5 136H264.6L270.9 153.6H268.1L263.1 139.2H263L258 153.6ZM258.5 146.7H267.7V148.9H258.5V146.7ZM279.2 153.6H273.5V136H279.4C281.1 136 282.6 136.4 283.9 137.1C285.1 137.8 286.1 138.8 286.7 140.1C287.4 141.4 287.7 143 287.7 144.8C287.7 146.6 287.4 148.2 286.7 149.5C286 150.8 285.1 151.8 283.8 152.5C282.5 153.2 281 153.6 279.2 153.6ZM276.1 151.3H279C280.3 151.3 281.5 151 282.3 150.5C283.2 150 283.9 149.3 284.3 148.3C284.7 147.3 285 146.1 285 144.8C285 143.5 284.8 142.2 284.3 141.3C283.9 140.3 283.2 139.6 282.3 139.1C281.4 138.6 280.4 138.4 279.1 138.4H276V151.4L276.1 151.3ZM291 153.6V136H293.7V151.3H301.7V153.6H291.1H291ZM307.3 135.9V153.5H304.6V135.9H307.3ZM323.1 141.5C322.9 141 322.7 140.5 322.4 140.1C322.1 139.7 321.8 139.3 321.4 139C321 138.7 320.6 138.5 320.1 138.3C319.6 138.1 319.1 138.1 318.5 138.1C317.5 138.1 316.6 138.4 315.8 138.9C315 139.4 314.4 140.2 313.9 141.1C313.4 142.1 313.2 143.3 313.2 144.7C313.2 146.1 313.4 147.3 313.9 148.3C314.4 149.3 315 150 315.8 150.5C316.6 151 317.5 151.3 318.6 151.3C319.7 151.3 320.4 151.1 321.1 150.7C321.8 150.3 322.4 149.8 322.8 149C323.2 148.3 323.4 147.4 323.4 146.5H324.1C324.1 146.6 319.1 146.6 319.1 146.6V144.4H326V146.4C326 147.9 325.7 149.2 325.1 150.3C324.5 151.4 323.6 152.2 322.5 152.8C321.4 153.4 320.1 153.7 318.7 153.7C317.3 153.7 315.7 153.3 314.5 152.6C313.3 151.9 312.4 150.8 311.7 149.5C311 148.1 310.7 146.5 310.7 144.7C310.7 142.9 310.9 142 311.3 140.9C311.7 139.8 312.2 138.8 312.9 138.1C313.6 137.3 314.4 136.7 315.4 136.3C316.4 135.9 317.4 135.7 318.6 135.7C319.8 135.7 320.4 135.8 321.3 136.1C322.1 136.4 322.9 136.8 323.5 137.3C324.1 137.8 324.7 138.4 325.1 139.1C325.5 139.8 325.8 140.6 326 141.5H323.3H323.1ZM329.3 153.6V136H340.4V138.3H332V143.7H339.8V146H332V151.4H340.5V153.7H329.3V153.6ZM358.2 135.9V153.5H355.8L346.8 140.6H346.6V153.5H343.9V135.9H346.4L355.4 148.8H355.6V135.9H358.2ZM361.2 138.2V135.9H374.8V138.2H369.3V153.5H366.6V138.2H361.1H361.2ZM385.7 153.6H382.9L389.2 136H392.3L398.6 153.6H395.8L390.8 139.2H390.7L385.7 153.6ZM386.2 146.7H395.4V148.9H386.2V146.7ZM406.9 153.6H401.2V136H407.1C408.8 136 410.3 136.4 411.6 137.1C412.8 137.8 413.8 138.8 414.4 140.1C415.1 141.4 415.4 143 415.4 144.8C415.4 146.6 415.1 148.2 414.4 149.5C413.7 150.8 412.8 151.8 411.5 152.5C410.2 153.2 408.7 153.6 406.9 153.6ZM403.9 151.3H406.8C408.1 151.3 409.3 151 410.1 150.5C411 150 411.7 149.3 412.1 148.3C412.5 147.3 412.8 146.1 412.8 144.8C412.8 143.5 412.6 142.2 412.1 141.3C411.7 140.3 411 139.6 410.1 139.1C409.2 138.6 408.2 138.4 406.9 138.4H403.8V151.4L403.9 151.3ZM439.8 141.7H437.1C437 141.1 436.8 140.6 436.5 140.2C436.2 139.8 435.9 139.4 435.5 139.1C435.1 138.8 434.6 138.6 434.1 138.4C433.6 138.2 433.1 138.2 432.5 138.2C431.5 138.2 430.6 138.5 429.8 139C429 139.5 428.4 140.3 427.9 141.2C427.4 142.2 427.2 143.4 427.2 144.8C427.2 146.2 427.4 147.4 427.9 148.4C428.4 149.4 429 150.1 429.8 150.6C430.6 151.1 431.5 151.4 432.5 151.4C433.5 151.4 433.6 151.4 434.1 151.2C434.6 151 435.1 150.8 435.5 150.5C435.9 150.2 436.3 149.8 436.5 149.4C436.8 149 437 148.5 437.1 147.9H439.8C439.7 148.8 439.4 149.6 439 150.3C438.6 151 438.1 151.6 437.4 152.2C436.8 152.7 436 153.1 435.2 153.4C434.4 153.7 433.5 153.8 432.5 153.8C431 153.8 429.6 153.4 428.4 152.7C427.2 152 426.3 150.9 425.6 149.6C424.9 148.2 424.6 146.6 424.6 144.8C424.6 143 424.9 141.3 425.6 140C426.3 138.6 427.2 137.6 428.4 136.9C429.6 136.2 431 135.8 432.5 135.8C434 135.8 434.3 135.9 435.1 136.2C435.9 136.5 436.6 136.9 437.3 137.4C437.9 137.9 438.5 138.5 438.9 139.3C439.3 140 439.6 140.9 439.8 141.8V141.7ZM444.3 153.6H441.5L447.8 136H450.9L457.2 153.6H454.4L449.4 139.2H449.3L444.3 153.6ZM444.8 146.7H454V148.9H444.8V146.7ZM459.8 135.9H463L468.6 149.6H468.8L474.4 135.9H477.6V153.5H475.1V140.7H474.9L469.7 153.4H467.6L462.4 140.7H462.2V153.5H459.7V135.9H459.8ZM481.6 153.6V136H487.9C489.3 136 490.4 136.2 491.3 136.7C492.2 137.2 492.9 137.9 493.3 138.7C493.7 139.6 494 140.5 494 141.6C494 142.7 493.8 143.7 493.3 144.5C492.9 145.4 492.2 146 491.3 146.5C490.4 147 489.3 147.2 487.9 147.2H483.6V144.9H487.7C488.6 144.9 489.3 144.8 489.8 144.5C490.3 144.2 490.7 143.8 491 143.3C491.3 142.8 491.4 142.2 491.4 141.5C491.4 140.8 491.3 140.2 491 139.7C490.7 139.2 490.3 138.8 489.8 138.5C489.3 138.2 488.5 138.1 487.7 138.1H484.4V153.4H481.7L481.6 153.6ZM496.7 153.6H493.9L500.2 136H503.3L509.6 153.6H506.8L501.8 139.2H501.7L496.7 153.6ZM497.2 146.7H506.4V148.9H497.2V146.7ZM514.8 135.9V153.5H512.1V135.9H514.8ZM530.7 141.5C530.5 141 530.3 140.5 530 140.1C529.7 139.7 529.4 139.3 529 139C528.6 138.7 528.2 138.5 527.7 138.3C527.2 138.1 526.7 138.1 526.1 138.1C525.1 138.1 524.2 138.4 523.4 138.9C522.6 139.4 522 140.2 521.5 141.1C521 142.1 520.8 143.3 520.8 144.7C520.8 146.1 521 147.3 521.5 148.3C522 149.3 522.6 150 523.4 150.5C524.2 151 525.1 151.3 526.2 151.3C527.3 151.3 528 151.1 528.7 150.7C529.4 150.3 530 149.8 530.4 149C530.8 148.3 531 147.4 531 146.5H531.7C531.7 146.6 526.7 146.6 526.7 146.6V144.4H533.6V146.4C533.6 147.9 533.3 149.2 532.7 150.3C532.1 151.4 531.2 152.2 530.1 152.8C529 153.4 527.7 153.7 526.3 153.7C524.9 153.7 523.3 153.3 522.1 152.6C520.9 151.9 520 150.8 519.3 149.5C518.6 148.1 518.3 146.5 518.3 144.7C518.3 142.9 518.5 142 518.9 140.9C519.3 139.8 519.8 138.8 520.5 138.1C521.2 137.3 522 136.7 523 136.3C524 135.9 525 135.7 526.2 135.7C527.4 135.7 528 135.8 528.9 136.1C529.7 136.4 530.5 136.8 531.1 137.3C531.7 137.8 532.3 138.4 532.7 139.1C533.1 139.8 533.4 140.6 533.6 141.5H530.9H530.7ZM551.1 135.9V153.5H548.7L539.7 140.6H539.5V153.5H536.8V135.9H539.3L548.3 148.8H548.5V135.9H551.1ZM564.6 140.6C564.6 139.8 564.1 139.2 563.5 138.7C562.8 138.2 562 138 561 138C560 138 559.7 138.1 559.1 138.3C558.6 138.5 558.2 138.8 557.9 139.2C557.6 139.6 557.5 140 557.5 140.5C557.5 141 557.5 141.3 557.8 141.6C558 141.9 558.3 142.2 558.6 142.4C558.9 142.6 559.3 142.8 559.7 142.9C560.1 143 560.4 143.1 560.8 143.2L562.5 143.6C563.1 143.7 563.6 143.9 564.2 144.2C564.8 144.4 565.3 144.7 565.8 145.1C566.3 145.5 566.7 146 567 146.5C567.3 147.1 567.5 147.7 567.5 148.5C567.5 149.3 567.2 150.4 566.7 151.2C566.2 152 565.4 152.6 564.5 153C563.5 153.4 562.4 153.7 561 153.7C559.6 153.7 558.5 153.5 557.6 153.1C556.6 152.7 555.9 152.1 555.3 151.3C554.8 150.5 554.5 149.6 554.4 148.5H557.1C557.1 149.1 557.4 149.7 557.7 150.1C558.1 150.5 558.5 150.8 559.1 151C559.7 151.2 560.3 151.3 561 151.3C561.7 151.3 562.4 151.2 563 150.9C563.6 150.7 564.1 150.3 564.4 149.9C564.7 149.5 564.9 149 564.9 148.4C564.9 147.8 564.8 147.5 564.5 147.1C564.2 146.8 563.8 146.5 563.3 146.3C562.8 146.1 562.2 145.9 561.6 145.7L559.5 145.1C558.1 144.7 557 144.2 556.1 143.4C555.3 142.7 554.9 141.7 554.9 140.4C554.9 139.1 555.2 138.5 555.7 137.7C556.3 136.9 557 136.4 557.9 135.9C558.8 135.5 559.9 135.3 561.1 135.3C562.3 135.3 563.3 135.5 564.3 135.9C565.2 136.3 565.9 136.9 566.5 137.6C567 138.3 567.3 139.2 567.3 140.1H564.7L564.6 140.6Z" fill="url(#paint6_linear_44_2)"/>
<path d="M228.1 153.6H225.3L231.6 136H234.7L241 153.6H238.2L233.2 139.2H233.1L228.1 153.6ZM228.5 146.7H237.7V148.9H228.5V146.7ZM246.2 135.9V153.5H243.5V135.9H246.2ZM258 153.6H255.2L261.5 136H264.6L270.9 153.6H268.1L263.1 139.2H263L258 153.6ZM258.5 146.7H267.7V148.9H258.5V146.7ZM279.2 153.6H273.5V136H279.4C281.1 136 282.6 136.4 283.9 137.1C285.1 137.8 286.1 138.8 286.7 140.1C287.4 141.4 287.7 143 287.7 144.8C287.7 146.6 287.4 148.2 286.7 149.5C286 150.8 285.1 151.8 283.8 152.5C282.5 153.2 281 153.6 279.2 153.6ZM276.1 151.3H279C280.3 151.3 281.5 151 282.3 150.5C283.2 150 283.9 149.3 284.3 148.3C284.7 147.3 285 146.1 285 144.8C285 143.5 284.8 142.2 284.3 141.3C283.9 140.3 283.2 139.6 282.3 139.1C281.4 138.6 280.4 138.4 279.1 138.4H276V151.4L276.1 151.3ZM291 153.6V136H293.7V151.3H301.7V153.6H291.1H291ZM307.3 135.9V153.5H304.6V135.9H307.3ZM323.1 141.5C322.9 141 322.7 140.5 322.4 140.1C322.1 139.7 321.8 139.3 321.4 139C321 138.7 320.6 138.5 320.1 138.3C319.6 138.1 319.1 138.1 318.5 138.1C317.5 138.1 316.6 138.4 315.8 138.9C315 139.4 314.4 140.2 313.9 141.1C313.4 142.1 313.2 143.3 313.2 144.7C313.2 146.1 313.4 147.3 313.9 148.3C314.4 149.3 315 150 315.8 150.5C316.6 151 317.5 151.3 318.6 151.3C319.7 151.3 320.4 151.1 321.1 150.7C321.8 150.3 322.4 149.8 322.8 149C323.2 148.3 323.4 147.4 323.4 146.5H324.1C324.1 146.6 319.1 146.6 319.1 146.6V144.4H326V146.4C326 147.9 325.7 149.2 325.1 150.3C324.5 151.4 323.6 152.2 322.5 152.8C321.4 153.4 320.1 153.7 318.7 153.7C317.3 153.7 315.7 153.3 314.5 152.6C313.3 151.9 312.4 150.8 311.7 149.5C311 148.1 310.7 146.5 310.7 144.7C310.7 142.9 310.9 142 311.3 140.9C311.7 139.8 312.2 138.8 312.9 138.1C313.6 137.3 314.4 136.7 315.4 136.3C316.4 135.9 317.4 135.7 318.6 135.7C319.8 135.7 320.4 135.8 321.3 136.1C322.1 136.4 322.9 136.8 323.5 137.3C324.1 137.8 324.7 138.4 325.1 139.1C325.5 139.8 325.8 140.6 326 141.5H323.3H323.1ZM329.3 153.6V136H340.4V138.3H332V143.7H339.8V146H332V151.4H340.5V153.7H329.3V153.6ZM358.2 135.9V153.5H355.8L346.8 140.6H346.6V153.5H343.9V135.9H346.4L355.4 148.8H355.6V135.9H358.2ZM361.2 138.2V135.9H374.8V138.2H369.3V153.5H366.6V138.2H361.1H361.2ZM385.7 153.6H382.9L389.2 136H392.3L398.6 153.6H395.8L390.8 139.2H390.7L385.7 153.6ZM386.2 146.7H395.4V148.9H386.2V146.7ZM406.9 153.6H401.2V136H407.1C408.8 136 410.3 136.4 411.6 137.1C412.8 137.8 413.8 138.8 414.4 140.1C415.1 141.4 415.4 143 415.4 144.8C415.4 146.6 415.1 148.2 414.4 149.5C413.7 150.8 412.8 151.8 411.5 152.5C410.2 153.2 408.7 153.6 406.9 153.6ZM403.9 151.3H406.8C408.1 151.3 409.3 151 410.1 150.5C411 150 411.7 149.3 412.1 148.3C412.5 147.3 412.8 146.1 412.8 144.8C412.8 143.5 412.6 142.2 412.1 141.3C411.7 140.3 411 139.6 410.1 139.1C409.2 138.6 408.2 138.4 406.9 138.4H403.8V151.4L403.9 151.3ZM439.8 141.7H437.1C437 141.1 436.8 140.6 436.5 140.2C436.2 139.8 435.9 139.4 435.5 139.1C435.1 138.8 434.6 138.6 434.1 138.4C433.6 138.2 433.1 138.2 432.5 138.2C431.5 138.2 430.6 138.5 429.8 139C429 139.5 428.4 140.3 427.9 141.2C427.4 142.2 427.2 143.4 427.2 144.8C427.2 146.2 427.4 147.4 427.9 148.4C428.4 149.4 429 150.1 429.8 150.6C430.6 151.1 431.5 151.4 432.5 151.4C433.5 151.4 433.6 151.4 434.1 151.2C434.6 151 435.1 150.8 435.5 150.5C435.9 150.2 436.3 149.8 436.5 149.4C436.8 149 437 148.5 437.1 147.9H439.8C439.7 148.8 439.4 149.6 439 150.3C438.6 151 438.1 151.6 437.4 152.2C436.8 152.7 436 153.1 435.2 153.4C434.4 153.7 433.5 153.8 432.5 153.8C431 153.8 429.6 153.4 428.4 152.7C427.2 152 426.3 150.9 425.6 149.6C424.9 148.2 424.6 146.6 424.6 144.8C424.6 143 424.9 141.3 425.6 140C426.3 138.6 427.2 137.6 428.4 136.9C429.6 136.2 431 135.8 432.5 135.8C434 135.8 434.3 135.9 435.1 136.2C435.9 136.5 436.6 136.9 437.3 137.4C437.9 137.9 438.5 138.5 438.9 139.3C439.3 140 439.6 140.9 439.8 141.8V141.7ZM444.3 153.6H441.5L447.8 136H450.9L457.2 153.6H454.4L449.4 139.2H449.3L444.3 153.6ZM444.8 146.7H454V148.9H444.8V146.7ZM459.8 135.9H463L468.6 149.6H468.8L474.4 135.9H477.6V153.5H475.1V140.7H474.9L469.7 153.4H467.6L462.4 140.7H462.2V153.5H459.7V135.9H459.8ZM481.6 153.6V136H487.9C489.3 136 490.4 136.2 491.3 136.7C492.2 137.2 492.9 137.9 493.3 138.7C493.7 139.6 494 140.5 494 141.6C494 142.7 493.8 143.7 493.3 144.5C492.9 145.4 492.2 146 491.3 146.5C490.4 147 489.3 147.2 487.9 147.2H483.6V144.9H487.7C488.6 144.9 489.3 144.8 489.8 144.5C490.3 144.2 490.7 143.8 491 143.3C491.3 142.8 491.4 142.2 491.4 141.5C491.4 140.8 491.3 140.2 491 139.7C490.7 139.2 490.3 138.8 489.8 138.5C489.3 138.2 488.5 138.1 487.7 138.1H484.4V153.4H481.7L481.6 153.6ZM496.7 153.6H493.9L500.2 136H503.3L509.6 153.6H506.8L501.8 139.2H501.7L496.7 153.6ZM497.2 146.7H506.4V148.9H497.2V146.7ZM514.8 135.9V153.5H512.1V135.9H514.8ZM530.7 141.5C530.5 141 530.3 140.5 530 140.1C529.7 139.7 529.4 139.3 529 139C528.6 138.7 528.2 138.5 527.7 138.3C527.2 138.1 526.7 138.1 526.1 138.1C525.1 138.1 524.2 138.4 523.4 138.9C522.6 139.4 522 140.2 521.5 141.1C521 142.1 520.8 143.3 520.8 144.7C520.8 146.1 521 147.3 521.5 148.3C522 149.3 522.6 150 523.4 150.5C524.2 151 525.1 151.3 526.2 151.3C527.3 151.3 528 151.1 528.7 150.7C529.4 150.3 530 149.8 530.4 149C530.8 148.3 531 147.4 531 146.5H531.7C531.7 146.6 526.7 146.6 526.7 146.6V144.4H533.6V146.4C533.6 147.9 533.3 149.2 532.7 150.3C532.1 151.4 531.2 152.2 530.1 152.8C529 153.4 527.7 153.7 526.3 153.7C524.9 153.7 523.3 153.3 522.1 152.6C520.9 151.9 520 150.8 519.3 149.5C518.6 148.1 518.3 146.5 518.3 144.7C518.3 142.9 518.5 142 518.9 140.9C519.3 139.8 519.8 138.8 520.5 138.1C521.2 137.3 522 136.7 523 136.3C524 135.9 525 135.7 526.2 135.7C527.4 135.7 528 135.8 528.9 136.1C529.7 136.4 530.5 136.8 531.1 137.3C531.7 137.8 532.3 138.4 532.7 139.1C533.1 139.8 533.4 140.6 533.6 141.5H530.9H530.7ZM551.1 135.9V153.5H548.7L539.7 140.6H539.5V153.5H536.8V135.9H539.3L548.3 148.8H548.5V135.9H551.1ZM564.6 140.6C564.6 139.8 564.1 139.2 563.5 138.7C562.8 138.2 562 138 561 138C560 138 559.7 138.1 559.1 138.3C558.6 138.5 558.2 138.8 557.9 139.2C557.6 139.6 557.5 140 557.5 140.5C557.5 141 557.5 141.3 557.8 141.6C558 141.9 558.3 142.2 558.6 142.4C558.9 142.6 559.3 142.8 559.7 142.9C560.1 143 560.4 143.1 560.8 143.2L562.5 143.6C563.1 143.7 563.6 143.9 564.2 144.2C564.8 144.4 565.3 144.7 565.8 145.1C566.3 145.5 566.7 146 567 146.5C567.3 147.1 567.5 147.7 567.5 148.5C567.5 149.3 567.2 150.4 566.7 151.2C566.2 152 565.4 152.6 564.5 153C563.5 153.4 562.4 153.7 561 153.7C559.6 153.7 558.5 153.5 557.6 153.1C556.6 152.7 555.9 152.1 555.3 151.3C554.8 150.5 554.5 149.6 554.4 148.5H557.1C557.1 149.1 557.4 149.7 557.7 150.1C558.1 150.5 558.5 150.8 559.1 151C559.7 151.2 560.3 151.3 561 151.3C561.7 151.3 562.4 151.2 563 150.9C563.6 150.7 564.1 150.3 564.4 149.9C564.7 149.5 564.9 149 564.9 148.4C564.9 147.8 564.8 147.5 564.5 147.1C564.2 146.8 563.8 146.5 563.3 146.3C562.8 146.1 562.2 145.9 561.6 145.7L559.5 145.1C558.1 144.7 557 144.2 556.1 143.4C555.3 142.7 554.9 141.7 554.9 140.4C554.9 139.1 555.2 138.5 555.7 137.7C556.3 136.9 557 136.4 557.9 135.9C558.8 135.5 559.9 135.3 561.1 135.3C562.3 135.3 563.3 135.5 564.3 135.9C565.2 136.3 565.9 136.9 566.5 137.6C567 138.3 567.3 139.2 567.3 140.1H564.7L564.6 140.6Z" fill="url(#paint7_linear_44_2)"/>
<g filter="url(#filter0_ddi_44_2)">
<path d="M150.985 137.175C152.009 137.279 152.808 138.143 152.809 139.194V150.97L152.798 151.177C152.701 152.132 151.941 152.892 150.985 152.989L150.778 153H139.003L138.795 152.989C137.84 152.892 137.08 152.132 136.983 151.177L136.973 150.97V139.194C136.973 138.143 137.772 137.279 138.795 137.175L139.003 137.164H150.778L150.985 137.175ZM139.003 138.382C138.555 138.382 138.191 138.746 138.19 139.194V150.97C138.191 151.418 138.555 151.781 139.003 151.781H150.778C151.227 151.781 151.59 151.418 151.59 150.97V139.194C151.59 138.746 151.227 138.382 150.778 138.382H139.003ZM145.185 140.413C145.346 140.413 145.478 140.55 145.478 140.718V141.631C146.053 141.633 146.614 141.837 147.063 142.202C147.208 142.318 147.226 142.537 147.097 142.668L146.458 143.315C146.363 143.412 146.212 143.431 146.101 143.354C145.917 143.224 145.697 143.153 145.474 143.153H144.259C143.96 143.153 143.718 143.405 143.718 143.715C143.718 143.962 143.877 144.185 144.106 144.254L146.086 144.855C147.147 145.177 147.809 146.379 147.415 147.552C147.133 148.391 146.332 148.918 145.478 148.936V149.854C145.477 150.021 145.346 150.158 145.185 150.158H144.598C144.436 150.158 144.305 150.021 144.305 149.854V148.939C143.729 148.938 143.168 148.734 142.719 148.368C142.574 148.252 142.555 148.034 142.686 147.902L143.323 147.255C143.418 147.158 143.569 147.139 143.681 147.217C143.864 147.346 144.084 147.417 144.308 147.417H145.523C145.822 147.417 146.064 147.166 146.064 146.855C146.064 146.608 145.905 146.387 145.676 146.316L143.797 145.746C142.983 145.499 142.337 144.785 142.26 143.907C142.152 142.672 143.091 141.631 144.259 141.631H144.305V140.718C144.305 140.55 144.436 140.413 144.598 140.413H145.185ZM120.672 138.413C125.206 140.822 130.142 142.58 135.353 143.564L135.363 146.456C129.745 145.453 124.423 143.598 119.538 141.028L120.672 138.413ZM174.385 138.87C168.536 142.561 161.939 145.18 154.87 146.448L154.859 143.56C161.275 142.345 167.272 139.956 172.617 136.626L174.385 138.87ZM186.604 128.917C187.053 128.917 187.417 129.281 187.417 129.729V133.583C187.417 133.864 187.343 134.141 187.204 134.386L183.056 141.682C182.453 142.741 180.942 142.784 180.28 141.761L175.543 134.44C175.373 134.178 175.282 133.871 175.282 133.558V129.729C175.282 129.281 175.646 128.917 176.095 128.917C176.543 128.917 176.907 129.281 176.907 129.729V133.558L181.644 140.879L185.792 133.583V129.729C185.792 129.281 186.156 128.917 186.604 128.917ZM102.865 137.187C102.865 136.774 103.267 136.481 103.66 136.606L106.502 137.515C106.754 137.595 106.926 137.83 106.926 138.095V141.8C106.926 142.149 106.632 142.426 106.283 142.407L103.441 142.252C103.119 142.234 102.865 141.967 102.865 141.644V137.187ZM113.537 125.423C116.968 123.707 117.923 124.993 117.971 125.852V137.58C117.971 141.298 115.111 140.154 114.824 140.011C114.595 139.896 106.815 137.198 102.953 135.863V130L113.537 125.423ZM116.826 126.715C116.826 126.154 116.271 125.762 115.743 125.949L114.793 126.286C114.469 126.401 114.252 126.708 114.252 127.052V137.584C114.252 137.936 114.479 138.248 114.813 138.356L115.764 138.665C116.288 138.835 116.826 138.444 116.826 137.893V126.715ZM182.196 124.171C182.645 124.171 183.009 124.535 183.009 124.983V135.154C183.009 135.603 182.645 135.966 182.196 135.966C181.748 135.966 181.384 135.603 181.384 135.154V124.983C181.384 124.535 181.748 124.171 182.196 124.171ZM102.054 135.946H100.43C99.5327 135.946 98.8048 135.219 98.8047 134.322V131.479C98.8049 130.583 99.5328 129.855 100.43 129.855H102.054V135.946ZM144.484 49.8662C145.493 49.8662 146.312 50.6842 146.312 51.6934C146.311 52.4885 145.803 53.1631 145.094 53.4141V64.4834C146.342 64.4834 147.56 64.5263 148.748 64.6094V56.6621C148.039 56.4111 147.53 55.7366 147.53 54.9414C147.53 53.9323 148.348 53.1143 149.357 53.1143C150.366 53.1144 151.185 53.9324 151.185 54.9414C151.185 55.7368 150.675 56.4112 149.966 56.6621V64.71C151.506 64.8551 152.994 65.0682 154.433 65.3389V62.7529C153.723 62.502 153.215 61.8274 153.215 61.0322C153.215 60.0231 154.033 59.2051 155.042 59.2051C156.051 59.2053 156.869 60.0232 156.869 61.0322C156.869 61.8275 156.36 62.502 155.65 62.7529V65.583C156.622 65.7921 157.569 66.0302 158.493 66.29V59.0977C157.784 58.8466 157.276 58.1729 157.275 57.3779C157.275 56.3688 158.093 55.5508 159.103 55.5508C160.112 55.5509 160.93 56.3689 160.93 57.3779C160.93 58.1731 160.42 58.8467 159.711 59.0977V66.6494C161.926 67.3379 163.999 68.1643 165.935 69.0869L169.251 65.5146C169.124 65.2658 169.051 64.985 169.051 64.6865C169.051 63.6774 169.869 62.8594 170.878 62.8594C171.887 62.8595 172.705 63.6775 172.705 64.6865C172.705 65.6954 171.887 66.5135 170.878 66.5137C170.613 66.5137 170.361 66.456 170.134 66.3545L167.075 69.6484C168.062 70.1519 169.01 70.6809 169.921 71.2275L174.934 65.9189C174.807 65.6705 174.734 65.3896 174.734 65.0918C174.735 64.0829 175.553 63.2647 176.562 63.2646C177.57 63.2646 178.388 64.0829 178.389 65.0918C178.389 66.1009 177.571 66.9189 176.562 66.9189C176.296 66.9189 176.044 66.8608 175.816 66.7588L170.979 71.8799C172.171 72.6373 173.295 73.4255 174.353 74.2285H183.773C184.024 73.5192 184.699 73.0099 185.494 73.0098C186.503 73.0098 187.321 73.8279 187.321 74.8369C187.321 75.846 186.503 76.6641 185.494 76.6641C184.699 76.6639 184.024 76.1555 183.773 75.4463H175.895C177.706 76.9361 179.298 78.4541 180.677 79.9131H183.368C183.619 79.2037 184.294 78.6944 185.089 78.6943C186.098 78.6943 186.916 79.5125 186.916 80.5215C186.916 81.5306 186.098 82.3486 185.089 82.3486C184.294 82.3485 183.619 81.8401 183.368 81.1309H181.794C184.764 84.4754 186.566 87.354 187.301 88.6211H187.302C187.828 89.5245 188.134 90.5767 188.134 91.6875C188.134 92.7947 187.829 93.8426 187.306 94.7441L187.307 94.7451C186.761 95.6859 185.613 97.5341 183.825 99.8096H186.209C186.46 99.0998 187.135 98.591 187.931 98.5908C188.94 98.5908 189.758 99.4088 189.758 100.418C189.758 101.427 188.94 102.245 187.931 102.245C187.136 102.245 186.461 101.736 186.21 101.027H182.841C182.083 101.935 181.232 102.89 180.287 103.869H188.646C188.898 103.16 189.572 102.651 190.367 102.651C191.376 102.651 192.194 103.469 192.194 104.479C192.194 105.487 191.376 106.306 190.367 106.306C189.572 106.306 188.897 105.796 188.646 105.087H179.074C177.096 107.007 174.761 108.971 172.052 110.794L177.038 116.208C177.265 116.107 177.516 116.051 177.78 116.051C178.789 116.051 179.607 116.869 179.607 117.878C179.607 118.887 178.789 119.705 177.78 119.705C176.771 119.705 175.953 118.887 175.953 117.878C175.953 117.578 176.026 117.296 176.154 117.046L171.019 111.47C170.231 111.971 169.414 112.459 168.566 112.931L171.804 116.594C172.019 116.505 172.255 116.456 172.502 116.456C173.511 116.456 174.329 117.274 174.329 118.283C174.329 119.292 173.511 120.11 172.502 120.11C171.493 120.11 170.675 119.292 170.675 118.283C170.675 117.967 170.755 117.669 170.896 117.409L167.466 113.523C166.689 113.929 165.888 114.319 165.063 114.691L165.457 115.123C165.673 115.034 165.909 114.984 166.157 114.984C167.166 114.984 167.984 115.803 167.984 116.812C167.984 117.821 167.166 118.639 166.157 118.639C165.148 118.638 164.33 117.821 164.33 116.812C164.33 116.495 164.41 116.197 164.552 115.938L163.885 115.206C161.989 116.001 159.971 116.7 157.829 117.269H158.087V127.119C158.796 127.37 159.305 128.045 159.305 128.841C159.305 129.85 158.487 130.668 157.478 130.668C156.469 130.668 155.65 129.85 155.65 128.841C155.65 128.045 156.16 127.37 156.869 127.119V117.512C155.815 117.768 154.733 117.993 153.62 118.183V126.307C154.33 126.557 154.839 127.233 154.839 128.028C154.839 129.037 154.021 129.855 153.012 129.855C152.003 129.855 151.185 129.037 151.185 128.028C151.185 127.233 151.693 126.558 152.402 126.307V118.374C150.584 118.637 148.69 118.804 146.718 118.864V132.397C147.427 132.648 147.937 133.324 147.937 134.119C147.937 135.128 147.118 135.946 146.109 135.946C145.1 135.946 144.282 135.128 144.282 134.119C144.282 133.324 144.79 132.649 145.499 132.397V118.888C145.364 118.889 145.229 118.893 145.094 118.893C144.408 118.893 143.731 118.876 143.063 118.851V127.562C143.063 128.187 142.745 128.769 142.218 129.104L141.113 129.808C140.938 129.919 140.831 130.113 140.831 130.321V132.078C141.432 132.377 141.846 132.996 141.846 133.713C141.846 134.722 141.028 135.54 140.019 135.54C139.009 135.54 138.191 134.722 138.191 133.713C138.192 132.843 138.799 132.116 139.612 131.932V130.321C139.612 129.697 139.932 129.115 140.459 128.779L141.563 128.076C141.739 127.964 141.846 127.771 141.846 127.562V118.789C140.38 118.698 138.959 118.548 137.582 118.343V127.42H136.363V118.146C135.323 117.964 134.308 117.752 133.319 117.512V129.149C134.028 129.401 134.536 130.076 134.536 130.871C134.536 131.88 133.718 132.698 132.709 132.698C131.7 132.698 130.882 131.88 130.882 130.871C130.882 130.076 131.391 129.4 132.101 129.149V117.197C131.341 116.991 130.597 116.769 129.868 116.531V122.547H128.649V116.115C126.523 115.357 124.537 114.474 122.687 113.506L119.75 116.707C119.858 116.94 119.92 117.198 119.92 117.472C119.92 118.481 119.102 119.299 118.093 119.299C117.084 119.299 116.266 118.481 116.266 117.472C116.266 116.463 117.084 115.645 118.093 115.645C118.383 115.645 118.656 115.714 118.899 115.834L121.581 112.909C120.542 112.33 119.549 111.725 118.601 111.103L113.658 116.704C113.767 116.938 113.829 117.197 113.829 117.472C113.829 118.481 113.011 119.299 112.002 119.299C110.993 119.299 110.175 118.481 110.175 117.472C110.175 116.463 110.993 115.645 112.002 115.645C112.29 115.645 112.561 115.713 112.804 115.832L117.581 110.417C108.886 104.392 104.178 96.987 102.878 94.7422L102.88 94.7412C102.358 93.8404 102.054 92.7934 102.054 91.6875C102.054 90.5802 102.357 89.5315 102.881 88.6299C104.227 86.3088 109.224 78.4606 118.51 72.334L113.209 66.3252C112.967 66.4439 112.695 66.5137 112.407 66.5137C111.398 66.5135 110.58 65.6954 110.58 64.6865C110.58 63.6775 111.398 62.8595 112.407 62.8594C113.416 62.8594 114.234 63.6774 114.234 64.6865C114.234 64.9607 114.172 65.2197 114.063 65.4531L119.547 71.668C120.492 71.078 121.48 70.5083 122.51 69.9639L119.3 66.3252C119.057 66.444 118.786 66.5137 118.498 66.5137C117.489 66.5137 116.671 65.6955 116.671 64.6865C116.671 63.6774 117.489 62.8594 118.498 62.8594C119.507 62.8594 120.325 63.6774 120.325 64.6865C120.325 64.9607 120.263 65.2198 120.154 65.4531L123.629 69.3916C125.387 68.521 127.263 67.7281 129.259 67.0469V60.7227C128.549 60.4719 128.04 59.7974 128.04 59.002C128.04 57.9929 128.858 57.1748 129.867 57.1748C130.876 57.1749 131.694 57.9929 131.694 59.002C131.694 59.797 131.186 60.4715 130.477 60.7227V66.6494C131.399 66.3626 132.346 66.1005 133.318 65.8643V61.6406H134.536V65.583C135.846 65.301 137.199 65.0708 138.597 64.8926V57.0684C137.888 56.8172 137.379 56.1426 137.379 55.3477C137.379 54.3386 138.197 53.5206 139.206 53.5205C140.215 53.5205 141.033 54.3385 141.033 55.3477C141.033 56.1431 140.524 56.8176 139.814 57.0684V64.7529C141.13 64.618 142.484 64.5289 143.876 64.4971V53.4141C143.167 53.1632 142.657 52.4886 142.657 51.6934C142.657 50.6844 143.475 49.8664 144.484 49.8662ZM178.977 128.917C179.425 128.917 179.789 129.281 179.789 129.729V134.476C179.789 134.924 179.425 135.288 178.977 135.288C178.528 135.288 178.164 134.924 178.164 134.476V129.729C178.164 129.281 178.528 128.917 178.977 128.917ZM146.109 133.307C145.661 133.307 145.297 133.671 145.297 134.119C145.297 134.568 145.661 134.932 146.109 134.932C146.558 134.931 146.922 134.568 146.922 134.119C146.922 133.671 146.558 133.307 146.109 133.307ZM140.019 132.9C139.57 132.9 139.206 133.265 139.206 133.713C139.206 134.161 139.57 134.525 140.019 134.525C140.467 134.525 140.831 134.161 140.831 133.713C140.831 133.265 140.467 132.9 140.019 132.9ZM184.569 129.087C185.018 129.087 185.382 129.451 185.382 129.899V132.95C185.382 133.399 185.018 133.763 184.569 133.763C184.121 133.762 183.757 133.398 183.757 132.95V129.899C183.757 129.451 184.121 129.087 184.569 129.087ZM172.704 129.256C173.153 129.256 173.516 129.62 173.517 130.068V132.78C173.517 133.229 173.153 133.593 172.704 133.593C172.256 133.593 171.892 133.229 171.892 132.78V130.068C171.892 129.62 172.256 129.256 172.704 129.256ZM190.503 129.729C191.532 129.73 192.368 130.564 192.368 131.594L192.358 131.785C192.263 132.725 191.468 133.459 190.503 133.459L190.312 133.449C189.372 133.354 188.639 132.559 188.639 131.594C188.639 130.564 189.473 129.73 190.503 129.729ZM190.503 130.947C190.146 130.947 189.857 131.237 189.856 131.594C189.856 131.951 190.146 132.24 190.503 132.24C190.86 132.24 191.149 131.951 191.149 131.594C191.149 131.237 190.86 130.947 190.503 130.947ZM132.709 130.059C132.261 130.059 131.896 130.423 131.896 130.871C131.897 131.319 132.261 131.683 132.709 131.684C133.157 131.684 133.521 131.319 133.521 130.871C133.521 130.423 133.157 130.059 132.709 130.059ZM157.478 128.028C157.029 128.029 156.665 128.392 156.665 128.841C156.665 129.289 157.029 129.653 157.478 129.653C157.926 129.653 158.29 129.289 158.29 128.841C158.29 128.392 157.926 128.028 157.478 128.028ZM153.012 127.216C152.563 127.216 152.199 127.58 152.199 128.028C152.199 128.477 152.563 128.841 153.012 128.841C153.46 128.841 153.824 128.477 153.824 128.028C153.824 127.58 153.46 127.216 153.012 127.216ZM93.4092 98.1846C94.5205 108.7 98.7942 118.278 105.265 125.959L103.246 127.978C96.2699 119.771 91.6823 109.485 90.5518 98.1846H93.4092ZM199.639 108.741C201.208 108.741 202.481 110.014 202.481 111.583V118.08C202.481 119.65 201.208 120.923 199.639 120.923H192.03C191.18 122.323 190.27 123.682 189.302 124.996L186.637 123.812C187.347 122.873 188.025 121.91 188.671 120.923H187.863C186.294 120.923 185.021 119.65 185.021 118.08V111.583C185.022 110.014 186.294 108.741 187.863 108.741H199.639ZM172.502 117.471C172.054 117.471 171.69 117.835 171.689 118.283C171.689 118.732 172.053 119.096 172.502 119.096C172.95 119.095 173.314 118.732 173.314 118.283C173.314 117.835 172.95 117.471 172.502 117.471ZM177.78 117.065C177.332 117.065 176.968 117.429 176.968 117.878C176.968 118.326 177.332 118.69 177.78 118.69C178.229 118.69 178.593 118.326 178.593 117.878C178.593 117.43 178.229 117.066 177.78 117.065ZM112.002 116.659C111.553 116.659 111.189 117.023 111.189 117.472C111.19 117.92 111.554 118.284 112.002 118.284C112.45 118.284 112.814 117.92 112.814 117.472C112.814 117.023 112.45 116.659 112.002 116.659ZM118.093 116.659C117.644 116.659 117.28 117.023 117.28 117.472C117.28 117.92 117.644 118.284 118.093 118.284C118.541 118.284 118.905 117.92 118.905 117.472C118.905 117.023 118.541 116.659 118.093 116.659ZM166.157 115.999C165.709 115.999 165.345 116.363 165.345 116.812C165.345 117.26 165.709 117.624 166.157 117.624C166.606 117.624 166.97 117.26 166.97 116.812C166.97 116.363 166.606 115.999 166.157 115.999ZM193.819 112.26C192.773 112.26 191.924 113.412 191.924 114.832C191.924 116.252 192.773 117.403 193.819 117.403C194.865 117.403 195.714 116.252 195.714 114.832C195.714 113.412 194.865 112.26 193.819 112.26ZM188.135 114.155C187.687 114.155 187.323 114.519 187.322 114.967C187.322 115.415 187.686 115.779 188.135 115.779H190.3C190.748 115.779 191.112 115.415 191.112 114.967C191.112 114.519 190.748 114.156 190.3 114.155H188.135ZM197.609 114.155C197.161 114.155 196.797 114.519 196.797 114.967C196.797 115.415 197.161 115.779 197.609 115.779H200.045C200.493 115.779 200.857 115.415 200.857 114.967C200.857 114.519 200.493 114.156 200.045 114.155H197.609ZM121.867 95.9521C121.819 95.9985 121.766 96.0433 121.709 96.085L114.346 101.439C114.727 101.812 115.123 102.187 115.534 102.562L128.393 102.075C129.198 102.045 129.867 102.689 129.867 103.495V104.682H132.304C133.088 104.682 133.725 105.318 133.725 106.103V107.321C133.724 108.106 133.088 108.742 132.304 108.742H131.897V107.523H132.304C132.416 107.523 132.506 107.433 132.507 107.321V106.103C132.507 105.991 132.416 105.899 132.304 105.899H127.431V104.682H128.649V103.495C128.649 103.38 128.554 103.288 128.438 103.292L116.863 103.731C122.916 108.85 131.827 113.722 143.969 114.007L145.094 114.02C158.883 114.019 168.622 108.125 174.834 102.394L169.609 97.1699H161.729C161.483 97.9389 161.184 98.6846 160.837 99.4023H165.6C166.384 99.4027 167.021 100.04 167.021 100.824V102.854C167.021 102.966 167.112 103.057 167.224 103.057H170.878V104.275H167.224C166.439 104.275 165.803 103.638 165.803 102.854V100.824C165.803 100.712 165.711 100.621 165.6 100.621H160.184C159.853 101.183 159.493 101.726 159.103 102.245H163.569V103.464H158.097C154.939 106.954 150.374 109.147 145.297 109.147C143.153 109.147 141.101 108.755 139.207 108.041V109.959C139.207 110.071 139.298 110.162 139.41 110.162H155.946C155.997 110.162 156.046 110.143 156.083 110.109L160.317 106.261L160.321 106.266L161.035 105.693C161.321 105.267 161.783 104.97 162.315 104.9L162.351 104.884V104.896C162.417 104.888 162.485 104.884 162.554 104.884C163.563 104.884 164.381 105.702 164.381 106.711C164.381 107.72 163.563 108.538 162.554 108.538C161.791 108.538 161.138 108.071 160.864 107.407L156.902 111.011C156.641 111.248 156.3 111.381 155.946 111.381H139.41C138.625 111.381 137.988 110.744 137.988 109.959V107.526C134.263 105.782 131.264 102.748 129.566 98.9971H123.167V97.7783H129.07C128.855 97.1842 128.672 96.5746 128.521 95.9521H121.867ZM199.711 97.3721C199.411 100.903 198.774 104.338 197.832 107.646L195.15 106.677C195.993 103.676 196.573 100.566 196.859 97.3721H199.711ZM162.554 106.103C162.218 106.103 161.946 106.375 161.945 106.711C161.945 107.047 162.217 107.32 162.554 107.32C162.89 107.32 163.163 107.047 163.163 106.711C163.163 106.375 162.89 106.103 162.554 106.103ZM190.367 103.666C189.919 103.666 189.555 104.03 189.555 104.479C189.555 104.927 189.919 105.291 190.367 105.291C190.816 105.291 191.18 104.927 191.18 104.479C191.18 104.03 190.816 103.666 190.367 103.666ZM145.297 79.5068C138.457 79.5069 132.913 85.0512 132.913 91.8906C132.913 98.7302 138.457 104.275 145.297 104.275C152.136 104.275 157.682 98.7301 157.682 91.8906C157.681 85.0513 152.136 79.507 145.297 79.5068ZM175.719 101.556C177.299 100.021 178.626 98.5204 179.708 97.1699H171.334L175.719 101.556ZM187.931 99.6055C187.482 99.6056 187.118 99.9696 187.118 100.418C187.118 100.866 187.482 101.23 187.931 101.23C188.379 101.23 188.743 100.866 188.743 100.418C188.743 99.9695 188.379 99.6055 187.931 99.6055ZM108.655 94.7334C109.759 96.3197 111.356 98.3822 113.476 100.566L120.731 95.29V94.7334H108.655ZM154.026 91.2822L141.439 98.9971V83.5674L154.026 91.2822ZM96.5293 82.7549C97.6504 82.755 98.5595 83.664 98.5596 84.7852V92.459L98.5488 92.666C98.452 93.6215 97.6927 94.3812 96.7373 94.4785L96.5293 94.4893H93.0312V96.6016H90.6836V94.4893H87.0303L86.8223 94.4785C85.8668 94.3813 85.1076 93.6216 85.0107 92.666L85 92.459V84.7852C85.0001 83.7342 85.7988 82.8698 86.8223 82.7656L87.0303 82.7549H96.5293ZM161.446 85.8008C161.695 86.459 161.904 87.1363 162.071 87.8301H176.04C176.504 87.8303 176.977 88.1001 177.142 88.5938C177.336 89.1775 177.375 89.7304 177.375 90.6729H176.562C176.562 89.7427 176.521 89.3013 176.371 88.8496C176.334 88.7395 176.212 88.6428 176.04 88.6426H162.247C162.323 89.0438 162.385 89.4498 162.434 89.8604H168.837C169.136 89.2594 169.755 88.8458 170.472 88.8457C171.481 88.8458 172.299 89.6639 172.299 90.6729C172.299 91.6818 171.481 92.4999 170.472 92.5C169.603 92.4999 168.876 91.8923 168.691 91.0791H162.534C162.547 91.3481 162.554 91.6186 162.554 91.8906C162.554 93.2893 162.385 94.6489 162.071 95.9512H180.649C181.867 94.3242 182.674 93.0199 183.092 92.2998C183.175 92.1565 183.23 92.0032 183.251 91.8457L183.262 91.6875C183.262 91.5286 183.229 91.3709 183.166 91.2217L183.092 91.0752C182.543 90.1282 181.321 88.1714 179.378 85.8008H161.446ZM197.879 87.6279C199.897 87.6282 201.533 89.2641 201.533 91.2822C201.533 93.3002 199.897 94.9363 197.879 94.9365C195.861 94.9365 194.225 93.3003 194.225 91.2822C194.225 89.264 195.861 87.6279 197.879 87.6279ZM111.317 85.1914C109.077 87.833 107.69 90.0485 107.095 91.0752L107.021 91.2217C106.958 91.3709 106.926 91.5285 106.926 91.6875C106.926 91.8994 106.984 92.1091 107.095 92.2998C107.272 92.6059 107.52 93.0174 107.84 93.5146H120.873C121.659 93.5146 122.183 94.0896 122.28 94.7334H128.274C128.121 93.8085 128.04 92.859 128.04 91.8906C128.04 91.4812 128.055 91.0752 128.083 90.6729H119.321C119.022 91.2738 118.403 91.6874 117.687 91.6875C116.678 91.6874 115.859 90.8694 115.859 89.8604C115.86 88.8515 116.678 88.0333 117.687 88.0332C118.556 88.0333 119.282 88.6408 119.467 89.4541H128.212C128.423 87.9636 128.822 86.5341 129.389 85.1914H111.317ZM87.0303 83.9727C86.5818 83.9727 86.2179 84.3367 86.2178 84.7852V92.459C86.2178 92.9074 86.5818 93.2705 87.0303 93.2705H96.5293C96.9777 93.2704 97.3417 92.9074 97.3418 92.459V84.7852C97.3417 84.3368 96.9777 83.9727 96.5293 83.9727H87.0303ZM170.472 89.6582C169.911 89.6583 169.457 90.1124 169.457 90.6729C169.457 91.2333 169.911 91.6883 170.472 91.6885C171.032 91.6884 171.487 91.2333 171.487 90.6729C171.487 90.1124 171.032 89.6583 170.472 89.6582ZM94.0957 86.0146C94.5442 86.0146 94.9082 86.3786 94.9082 86.8271V90.3545C94.908 90.8268 94.5062 91.1995 94.0352 91.1641L88.749 90.7646C88.3256 90.7325 87.9981 90.3797 87.998 89.9551V89.6572C87.998 89.493 88.0477 89.3316 88.1406 89.1963L89.2891 87.5264C89.3821 87.3911 89.4326 87.2306 89.4326 87.0664V86.8271C89.4326 86.3788 89.7958 86.0149 90.2441 86.0146H94.0957ZM117.687 88.8457C117.126 88.8458 116.672 89.3 116.672 89.8604C116.672 90.4209 117.126 90.8758 117.687 90.876C118.247 90.8759 118.702 90.4209 118.702 89.8604C118.702 89.3 118.247 88.8458 117.687 88.8457ZM93.7344 90.0566V87.3184H90.7363L93.7344 90.0566ZM186.466 56.875C193.197 64.5836 197.793 74.1919 199.337 84.7852H196.463C194.951 74.9762 190.675 66.0729 184.451 58.8906L186.466 56.875ZM145.094 69.3555C140.088 69.3555 135.617 70.1337 131.653 71.3975L132.14 73.4619C132.161 73.5534 132.243 73.6179 132.337 73.6182H138.597V74.8369H132.337C131.678 74.8366 131.105 74.3829 130.954 73.7412L130.493 71.7861C126.638 73.1403 123.287 74.9495 120.415 76.9287L126.131 77.415C126.866 77.4778 127.431 78.0932 127.432 78.8311V80.3184C127.432 80.4305 127.523 80.5215 127.635 80.5215H132.315C135.478 76.913 140.121 74.6338 145.297 74.6338C149.302 74.6339 152.989 75.9992 155.917 78.2891H161.389C161.355 78.1591 161.336 78.0232 161.336 77.8828C161.336 76.9858 162.063 76.2588 162.96 76.2588C163.857 76.2589 164.584 76.9859 164.584 77.8828C164.584 78.7236 163.945 79.4148 163.126 79.498L162.96 79.5068H157.312C157.899 80.0764 158.447 80.6864 158.948 81.334H163.366V82.5527H159.811C160.228 83.2006 160.603 83.8785 160.933 84.582H168.856L173.576 79.8604C167.52 74.6634 158.53 69.657 146.218 69.3682L145.094 69.3555ZM170.579 84.582H178.348C177.25 83.3304 175.967 82.0001 174.493 80.667L170.579 84.582ZM118.899 78.0215C118.392 78.4036 117.901 78.7903 117.427 79.1787L124.174 83.9727H129.961C130.365 83.1918 130.827 82.4458 131.341 81.7402H127.635C126.85 81.7402 126.213 81.1032 126.213 80.3184V78.8311C126.213 78.7258 126.132 78.6379 126.027 78.6289L118.899 78.0215ZM116.464 79.9883C114.911 81.3319 113.555 82.6864 112.387 83.9727H122.071L116.464 79.9883ZM185.089 79.709C184.641 79.7091 184.277 80.0732 184.276 80.5215C184.276 80.9699 184.64 81.3339 185.089 81.334C185.537 81.334 185.901 80.97 185.901 80.5215C185.901 80.0731 185.537 79.709 185.089 79.709ZM104.824 59.9746C100.11 65.723 96.6114 72.4985 94.7197 79.9121H91.792C93.775 71.68 97.6275 64.1722 102.88 57.8623L104.824 59.9746ZM131.896 75.8525C132.457 75.8525 132.912 76.3068 132.912 76.8672L132.907 76.9717C132.855 77.4833 132.422 77.8828 131.896 77.8828L131.793 77.8779C131.281 77.8257 130.882 77.3925 130.882 76.8672C130.882 76.3071 131.336 75.853 131.896 75.8525ZM131.896 76.2588C131.561 76.2593 131.288 76.5313 131.288 76.8672C131.288 77.2032 131.561 77.4761 131.896 77.4766C132.233 77.4766 132.506 77.2035 132.506 76.8672C132.506 76.531 132.233 76.2588 131.896 76.2588ZM185.494 74.0244C185.046 74.0246 184.682 74.3887 184.682 74.8369C184.682 75.2853 185.046 75.6492 185.494 75.6494C185.943 75.6494 186.307 75.2854 186.307 74.8369C186.306 74.3886 185.943 74.0244 185.494 74.0244ZM158.696 73.0098C159.257 73.0098 159.711 73.4648 159.711 74.0254C159.711 74.5859 159.257 75.04 158.696 75.04C158.136 75.04 157.681 74.5859 157.681 74.0254C157.681 73.4648 158.136 73.0098 158.696 73.0098ZM176.562 64.2793C176.113 64.2793 175.749 64.6435 175.749 65.0918C175.749 65.5403 176.113 65.9043 176.562 65.9043C177.01 65.9043 177.374 65.5403 177.374 65.0918C177.374 64.6435 177.01 64.2793 176.562 64.2793ZM112.407 63.874C111.959 63.8741 111.595 64.2381 111.595 64.6865C111.595 65.1348 111.959 65.4989 112.407 65.499C112.856 65.499 113.22 65.1349 113.22 64.6865C113.22 64.238 112.856 63.874 112.407 63.874ZM118.498 63.874C118.05 63.874 117.686 64.238 117.686 64.6865C117.686 65.1349 118.05 65.499 118.498 65.499C118.946 65.499 119.31 65.1349 119.311 64.6865C119.311 64.2381 118.947 63.874 118.498 63.874ZM170.878 63.874C170.429 63.874 170.065 64.238 170.065 64.6865C170.066 65.1349 170.43 65.499 170.878 65.499C171.326 65.4989 171.69 65.1348 171.69 64.6865C171.69 64.2381 171.326 63.8742 170.878 63.874ZM189.583 44.5078C189.924 44.502 190.318 44.6845 190.612 44.9824C190.907 45.2804 191.082 45.6596 191.075 46.0166L190.903 53.1123C190.904 53.5173 190.658 53.7966 190.279 53.8584C189.9 53.9202 189.445 53.7439 189.104 53.3994L187.634 51.9121L183.968 55.376L182.54 56.8047C182.527 56.7908 182.512 56.7776 182.499 56.7637L179.285 59.8008C178.04 60.9765 176.078 60.9205 174.902 59.6758C173.727 58.431 173.783 56.4689 175.027 55.293L183.272 47.5029L182.18 46.3975C181.839 46.053 181.661 45.603 181.727 45.2246C181.763 45.0594 181.828 44.9221 181.936 44.8154C182.07 44.6821 182.26 44.6043 182.485 44.6025L189.583 44.5078ZM110.076 56.3994C110.476 56.2921 110.894 56.5035 111.044 56.8896L111.836 58.9307C111.991 59.3289 111.811 59.7787 111.424 59.96L111.001 60.1582C110.619 60.3366 110.165 60.193 109.954 59.8281L108.785 57.8037C108.518 57.3413 108.763 56.7515 109.278 56.6133L110.076 56.3994ZM129.867 58.1895C129.419 58.1895 129.055 58.5535 129.055 59.002C129.055 59.4503 129.419 59.8144 129.867 59.8145C130.316 59.8144 130.68 59.4503 130.68 59.002C130.68 58.5535 130.316 58.1895 129.867 58.1895ZM104.226 52.3877C104.616 52.1339 105.139 52.26 105.372 52.6631L107.542 56.4199C107.775 56.823 107.621 57.3388 107.206 57.5498L105.839 58.2451C105.454 58.4408 104.983 58.3015 104.768 57.9277L102.68 54.3115C102.464 53.9376 102.579 53.46 102.94 53.2246L104.226 52.3877ZM159.103 56.5654C158.654 56.5654 158.29 56.9295 158.29 57.3779C158.29 57.8262 158.654 58.1904 159.103 58.1904C159.551 58.1903 159.915 57.8262 159.915 57.3779C159.915 56.9295 159.551 56.5655 159.103 56.5654ZM113.318 40.3574C113.545 40.2271 113.833 40.305 113.964 40.5312L122.151 54.7119C122.197 54.7937 122.222 54.8907 122.213 54.9912C122.189 55.2505 121.96 55.442 121.7 55.4189C119.307 55.2003 117.004 55.1758 114.797 55.3457C112.602 55.5152 110.491 55.8764 108.468 56.4287C108.256 56.5062 108.012 56.4228 107.896 56.2207L105.529 52.123C105.426 51.9408 105.452 51.7028 105.608 51.5488C107.109 50.0662 108.486 48.41 109.737 46.583C110.983 44.7636 112.11 42.7662 113.114 40.5938C113.152 40.4976 113.222 40.413 113.318 40.3574ZM139.206 54.5352C138.758 54.5353 138.394 54.8993 138.394 55.3477C138.394 55.7959 138.758 56.16 139.206 56.1602C139.654 56.1602 140.018 55.796 140.019 55.3477C140.019 54.8992 139.655 54.5352 139.206 54.5352ZM149.357 54.1289C148.909 54.1289 148.545 54.4929 148.545 54.9414C148.545 55.3898 148.909 55.7539 149.357 55.7539C149.806 55.7538 150.17 55.3898 150.17 54.9414C150.17 54.493 149.806 54.129 149.357 54.1289ZM114.408 43.3584C114.131 42.8793 113.432 42.9014 113.187 43.3975C113.084 43.6051 113.092 43.8502 113.208 44.0508L118.759 53.666C118.88 53.875 119.1 54.0066 119.342 54.0127C119.883 54.026 120.229 53.4414 119.959 52.9727L114.408 43.3584ZM156.869 39.3535C164.697 41.0606 171.898 44.4351 178.08 49.083L176.049 51.1133C170.422 46.9507 163.921 43.8925 156.869 42.2656V39.3535ZM153.016 32.0107C154.04 32.1146 154.839 32.979 154.839 34.0303V45.8057L154.828 46.0127C154.731 46.9684 153.971 47.7283 153.016 47.8252L152.809 47.8359H137.379L137.171 47.8252C136.216 47.7279 135.456 46.9681 135.359 46.0127L135.349 45.8057V34.0303C135.349 32.9793 136.147 32.115 137.171 32.0107L137.379 32H152.809L153.016 32.0107ZM133.319 42.2656C128.781 43.3127 124.47 44.9526 120.474 47.0977L119.285 44.5107C123.645 42.1885 128.356 40.4358 133.319 39.3535V42.2656ZM137.379 33.2178C136.931 33.2179 136.566 33.5819 136.566 34.0303V45.8057C136.567 46.2539 136.931 46.6171 137.379 46.6172H152.809C153.257 46.6171 153.62 46.254 153.62 45.8057V34.0303C153.62 33.5819 153.257 33.2179 152.809 33.2178H137.379ZM149.966 40.1211L142.251 44.9932V35.248L149.966 40.1211Z" fill="url(#paint8_linear_44_2)"/>
</g>
<g filter="url(#filter1_ddi_44_2)">
<path fill-rule="evenodd" clip-rule="evenodd" d="M334.872 35C336.592 35.4299 335.99 36.3756 337.107 37.2354C338.225 38.0951 338.655 37.5793 339.343 37.2354C340.03 36.8915 340.719 37.2353 341.148 37.665C341.578 38.0949 341.836 38.8688 341.578 39.5566C341.32 40.2445 341.062 41.1051 341.578 41.793C342.094 42.4807 342.352 42.4804 342.868 42.6523C343.384 42.8243 343.728 43.4264 343.9 44.0283V44.458C343.385 46.1776 342.524 45.5756 341.664 46.6934C340.805 47.8108 341.406 48.2411 341.664 48.9287C341.922 49.6166 341.664 50.3045 341.234 50.7344C340.804 51.1643 340.031 51.422 339.429 51.1641C338.827 50.9062 337.795 50.6485 337.193 51.1641C336.076 52.0239 336.678 52.9705 334.958 53.4004H334.528C332.809 52.9705 333.411 52.0239 332.293 51.1641C331.175 50.3042 330.745 50.8201 329.971 51.1641C329.197 51.5079 328.595 51.1643 328.165 50.7344C327.735 50.3044 327.477 49.5304 327.735 48.9287C327.993 48.3268 328.251 47.2952 327.735 46.6934C326.79 45.5758 325.93 46.1775 325.5 44.458V44.0283C325.672 43.4264 325.93 42.9103 326.532 42.6523C327.134 42.3946 327.478 42.2225 327.821 41.793C328.337 41.1911 328.079 40.2445 327.821 39.5566C327.564 38.8689 327.821 38.1808 328.251 37.665C328.681 37.1493 329.455 36.9776 330.143 37.2354C330.83 37.4933 331.777 37.7512 332.379 37.2354C333.496 36.3756 332.895 35.4299 334.614 35H334.872ZM334.958 40.1592C332.584 40.1592 330.659 42.0837 330.659 44.458C330.659 46.8323 332.584 48.7568 334.958 48.7568C337.332 48.7568 339.257 46.8323 339.257 44.458C339.257 42.0837 337.332 40.1592 334.958 40.1592Z" fill="url(#paint9_linear_44_2)"/>
</g>
</g>
<defs>
<filter id="filter0_ddi_44_2" x="81.2238" y="29.848" width="125.034" height="128.552" filterUnits="userSpaceOnUse" color-interpolation-filters="sRGB">
<feFlood flood-opacity="0" result="BackgroundImageFix"/>
<feColorMatrix in="SourceAlpha" type="matrix" values="0 0 0 0 0 0 0 0 0 0 0 0 0 0 0 0 0 0 127 0" result="hardAlpha"/>
<feOffset dy="1.62416"/>
<feGaussianBlur stdDeviation="1.88809"/>
<feComposite in2="hardAlpha" operator="out"/>
<feColorMatrix type="matrix" values="0 0 0 0 0 0 0 0 0 0 0 0 0 0 0 0 0 0 0.25 0"/>
<feBlend mode="normal" in2="BackgroundImageFix" result="effect1_dropShadow_44_2"/>
<feColorMatrix in="SourceAlpha" type="matrix" values="0 0 0 0 0 0 0 0 0 0 0 0 0 0 0 0 0 0 127 0" result="hardAlpha"/>
<feOffset dy="0.40604"/>
<feComposite in2="hardAlpha" operator="out"/>
<feColorMatrix type="matrix" values="0 0 0 0 0.358394 0 0 0 0 0.214289 0 0 0 0 0.610577 0 0 0 1 0"/>
<feBlend mode="normal" in2="effect1_dropShadow_44_2" result="effect2_dropShadow_44_2"/>
<feBlend mode="normal" in="SourceGraphic" in2="effect2_dropShadow_44_2" result="shape"/>
<feColorMatrix in="SourceAlpha" type="matrix" values="0 0 0 0 0 0 0 0 0 0 0 0 0 0 0 0 0 0 127 0" result="hardAlpha"/>
<feOffset dy="0.40604"/>
<feGaussianBlur stdDeviation="0.223322"/>
<feComposite in2="hardAlpha" operator="arithmetic" k2="-1" k3="1"/>
<feColorMatrix type="matrix" values="0 0 0 0 0.718817 0 0 0 0 0.642312 0 0 0 0 0.850962 0 0 0 1 0"/>
<feBlend mode="normal" in2="shape" result="effect3_innerShadow_44_2"/>
</filter>
<filter id="filter1_ddi_44_2" x="316.2" y="29.7" width="37.0004" height="37.0004" filterUnits="userSpaceOnUse" color-interpolation-filters="sRGB">
<feFlood flood-opacity="0" result="BackgroundImageFix"/>
<feColorMatrix in="SourceAlpha" type="matrix" values="0 0 0 0 0 0 0 0 0 0 0 0 0 0 0 0 0 0 127 0" result="hardAlpha"/>
<feOffset dy="4"/>
<feGaussianBlur stdDeviation="4.65"/>
<feComposite in2="hardAlpha" operator="out"/>
<feColorMatrix type="matrix" values="0 0 0 0 0 0 0 0 0 0 0 0 0 0 0 0 0 0 0.25 0"/>
<feBlend mode="normal" in2="BackgroundImageFix" result="effect1_dropShadow_44_2"/>
<feColorMatrix in="SourceAlpha" type="matrix" values="0 0 0 0 0 0 0 0 0 0 0 0 0 0 0 0 0 0 127 0" result="hardAlpha"/>
<feOffset dy="1"/>
<feComposite in2="hardAlpha" operator="out"/>
<feColorMatrix type="matrix" values="0 0 0 0 0.358394 0 0 0 0 0.214289 0 0 0 0 0.610577 0 0 0 1 0"/>
<feBlend mode="normal" in2="effect1_dropShadow_44_2" result="effect2_dropShadow_44_2"/>
<feBlend mode="normal" in="SourceGraphic" in2="effect2_dropShadow_44_2" result="shape"/>
<feColorMatrix in="SourceAlpha" type="matrix" values="0 0 0 0 0 0 0 0 0 0 0 0 0 0 0 0 0 0 127 0" result="hardAlpha"/>
<feOffset dy="1"/>
<feComposite in2="hardAlpha" operator="arithmetic" k2="-1" k3="1"/>
<feColorMatrix type="matrix" values="0 0 0 0 0.718817 0 0 0 0 0.642312 0 0 0 0 0.850962 0 0 0 1 0"/>
<feBlend mode="normal" in2="shape" result="effect3_innerShadow_44_2"/>
</filter>
<linearGradient id="paint0_linear_44_2" x1="228.446" y1="82.6134" x2="311.583" y2="85.2954" gradientUnits="userSpaceOnUse">
<stop stop-color="#886CB9"/>
<stop offset="1" stop-color="white"/>
</linearGradient>
<linearGradient id="paint1_linear_44_2" x1="327.172" y1="91.0829" x2="343.393" y2="91.2123" gradientUnits="userSpaceOnUse">
<stop stop-color="#886CB9"/>
<stop offset="1" stop-color="white"/>
</linearGradient>
<linearGradient id="paint2_linear_44_2" x1="359.743" y1="91.5483" x2="394.576" y2="92.1658" gradientUnits="userSpaceOnUse">
<stop stop-color="#886CB9"/>
<stop offset="1" stop-color="white"/>
</linearGradient>
<linearGradient id="paint3_linear_44_2" x1="443.642" y1="96.7672" x2="456.447" y2="97.0011" gradientUnits="userSpaceOnUse">
<stop stop-color="#886CB9"/>
<stop offset="1" stop-color="white"/>
</linearGradient>
<linearGradient id="paint4_linear_44_2" x1="399.354" y1="97.8865" x2="441.225" y2="99.0647" gradientUnits="userSpaceOnUse">
<stop stop-color="#886CB9"/>
<stop offset="1" stop-color="white"/>
</linearGradient>
<linearGradient id="paint5_linear_44_2" x1="475.627" y1="81.247" x2="555.903" y2="83.5777" gradientUnits="userSpaceOnUse">
<stop stop-color="#886CB9"/>
<stop offset="1" stop-color="white"/>
</linearGradient>
<linearGradient id="paint6_linear_44_2" x1="238.901" y1="145.295" x2="491.255" y2="283.895" gradientUnits="userSpaceOnUse">
<stop stop-color="#886CB9"/>
<stop offset="1" stop-color="white"/>
</linearGradient>
<linearGradient id="paint7_linear_44_2" x1="238.901" y1="145.295" x2="491.255" y2="283.895" gradientUnits="userSpaceOnUse">
<stop stop-color="#886CB9"/>
<stop offset="1" stop-color="white"/>
</linearGradient>
<linearGradient id="paint8_linear_44_2" x1="89.6695" y1="97.3725" x2="202.346" y2="100.621" gradientUnits="userSpaceOnUse">
<stop stop-color="#6339AD"/>
<stop offset="1" stop-color="white"/>
</linearGradient>
<linearGradient id="paint9_linear_44_2" x1="326.231" y1="44.941" x2="343.878" y2="45.4649" gradientUnits="userSpaceOnUse">
<stop stop-color="#8968B3"/>
<stop offset="1" stop-color="#F6D6F6"/>
</linearGradient>
<clipPath id="clip0_44_2">
<rect width="688" height="181" fill="white"/>
</clipPath>
</defs>
</svg>
